<mxfile host="app.diagrams.net" modified="2021-07-18T13:12:00.294Z" agent="5.0 (Windows NT 10.0; Win64; x64) AppleWebKit/537.36 (KHTML, like Gecko) Chrome/91.0.4472.124 Safari/537.36 Edg/91.0.864.70" etag="trH8GNLvUGXUHpdbEcXg" version="14.8.1" type="github">
  <diagram id="Ae6YrtKuWZ1j_GVri5Am" name="第 1 页">
    <mxGraphModel dx="1684" dy="1210" grid="1" gridSize="10" guides="1" tooltips="1" connect="1" arrows="1" fold="1" page="1" pageScale="1" pageWidth="827" pageHeight="1169" background="#EEEEEE" math="0" shadow="0">
      <root>
        <mxCell id="0" />
        <mxCell id="1" parent="0" />
        <mxCell id="lmLc1Wd8VdwL2DXaDBoG-1" value="" style="verticalLabelPosition=bottom;verticalAlign=top;html=1;shape=mxgraph.basic.patternFillRect;fillStyle=grid;step=5;fillStrokeWidth=0.2;fillStrokeColor=#dddddd;strokeWidth=2;fontSize=34;rounded=1;fillColor=#F5AB50;strokeColor=#909090;fontColor=#1A1A1A;sketch=1;" parent="1" vertex="1">
          <mxGeometry x="320" y="290" width="90" height="50" as="geometry" />
        </mxCell>
        <mxCell id="lmLc1Wd8VdwL2DXaDBoG-6" value="" style="verticalLabelPosition=bottom;verticalAlign=top;html=1;shape=mxgraph.basic.patternFillRect;fillStyle=grid;step=5;fillStrokeWidth=0.2;fillStrokeColor=#dddddd;strokeWidth=2;fontSize=34;rounded=1;strokeColor=#432D57;fillColor=#76608a;sketch=1;fontColor=#ffffff;" parent="1" vertex="1">
          <mxGeometry x="320" y="340" width="90" height="50" as="geometry" />
        </mxCell>
        <mxCell id="qvCsnHlTJpvGQ7y7qVDZ-17" style="edgeStyle=orthogonalEdgeStyle;curved=0;rounded=1;sketch=1;orthogonalLoop=1;jettySize=auto;html=1;exitX=1;exitY=0.5;exitDx=0;exitDy=0;exitPerimeter=0;fontColor=#1A1A1A;endSize=17;strokeColor=#182E3E;dashed=1;" edge="1" parent="1" source="lmLc1Wd8VdwL2DXaDBoG-7">
          <mxGeometry relative="1" as="geometry">
            <mxPoint x="560" y="415" as="targetPoint" />
          </mxGeometry>
        </mxCell>
        <mxCell id="lmLc1Wd8VdwL2DXaDBoG-7" value="" style="verticalLabelPosition=bottom;verticalAlign=top;html=1;shape=mxgraph.basic.patternFillRect;fillStyle=grid;step=5;fillStrokeWidth=0.2;fillStrokeColor=#dddddd;strokeWidth=2;fontSize=34;rounded=1;fillColor=#F5AB50;strokeColor=#909090;fontColor=#1A1A1A;sketch=1;" parent="1" vertex="1">
          <mxGeometry x="320" y="390" width="90" height="50" as="geometry" />
        </mxCell>
        <mxCell id="lmLc1Wd8VdwL2DXaDBoG-8" value="" style="verticalLabelPosition=bottom;verticalAlign=top;html=1;shape=mxgraph.basic.patternFillRect;fillStyle=grid;step=5;fillStrokeWidth=0.2;fillStrokeColor=#dddddd;strokeWidth=2;fontSize=34;rounded=1;fillColor=#F5AB50;strokeColor=#909090;fontColor=#1A1A1A;sketch=1;" parent="1" vertex="1">
          <mxGeometry x="320" y="440" width="90" height="50" as="geometry" />
        </mxCell>
        <mxCell id="lmLc1Wd8VdwL2DXaDBoG-9" value="" style="verticalLabelPosition=bottom;verticalAlign=top;html=1;shape=mxgraph.basic.patternFillRect;fillStyle=grid;step=5;fillStrokeWidth=0.2;fillStrokeColor=#dddddd;strokeWidth=2;fontSize=34;rounded=1;fillColor=#F5AB50;strokeColor=#909090;fontColor=#1A1A1A;sketch=1;" parent="1" vertex="1">
          <mxGeometry x="320" y="490" width="90" height="50" as="geometry" />
        </mxCell>
        <mxCell id="qvCsnHlTJpvGQ7y7qVDZ-1" value="3" style="text;html=1;resizable=0;autosize=1;align=center;verticalAlign=middle;points=[];fontSize=34;fontStyle=1;rounded=1;fontColor=#1A1A1A;sketch=1;" vertex="1" parent="1">
          <mxGeometry x="350" y="290" width="30" height="50" as="geometry" />
        </mxCell>
        <mxCell id="qvCsnHlTJpvGQ7y7qVDZ-2" value="3" style="text;html=1;resizable=0;autosize=1;align=center;verticalAlign=middle;points=[];fontSize=34;fontStyle=1;rounded=1;fontColor=#1A1A1A;sketch=1;" vertex="1" parent="1">
          <mxGeometry x="350" y="340" width="30" height="50" as="geometry" />
        </mxCell>
        <mxCell id="qvCsnHlTJpvGQ7y7qVDZ-3" value="2" style="text;html=1;resizable=0;autosize=1;align=center;verticalAlign=middle;points=[];fontSize=34;fontStyle=1;rounded=1;fontColor=#1A1A1A;sketch=1;" vertex="1" parent="1">
          <mxGeometry x="350" y="390" width="30" height="50" as="geometry" />
        </mxCell>
        <mxCell id="qvCsnHlTJpvGQ7y7qVDZ-4" value="1" style="text;html=1;resizable=0;autosize=1;align=center;verticalAlign=middle;points=[];fontSize=34;fontStyle=1;rounded=1;fontColor=#1A1A1A;sketch=1;" vertex="1" parent="1">
          <mxGeometry x="350" y="440" width="30" height="50" as="geometry" />
        </mxCell>
        <mxCell id="qvCsnHlTJpvGQ7y7qVDZ-5" value="0" style="text;html=1;resizable=0;autosize=1;align=center;verticalAlign=middle;points=[];fontSize=34;fontStyle=1;rounded=1;fontColor=#1A1A1A;sketch=1;" vertex="1" parent="1">
          <mxGeometry x="350" y="490" width="30" height="50" as="geometry" />
        </mxCell>
        <mxCell id="qvCsnHlTJpvGQ7y7qVDZ-25" style="edgeStyle=orthogonalEdgeStyle;curved=0;rounded=1;sketch=1;orthogonalLoop=1;jettySize=auto;html=1;exitX=0;exitY=0.5;exitDx=0;exitDy=0;exitPerimeter=0;dashed=1;fontColor=#1A1A1A;endSize=17;strokeColor=#182E3E;" edge="1" parent="1" source="qvCsnHlTJpvGQ7y7qVDZ-6">
          <mxGeometry relative="1" as="geometry">
            <mxPoint x="470" y="570" as="targetPoint" />
            <Array as="points">
              <mxPoint x="300" y="565" />
              <mxPoint x="300" y="630" />
              <mxPoint x="470" y="630" />
            </Array>
          </mxGeometry>
        </mxCell>
        <mxCell id="qvCsnHlTJpvGQ7y7qVDZ-6" value="" style="verticalLabelPosition=bottom;verticalAlign=top;html=1;shape=mxgraph.basic.patternFillRect;fillStyle=grid;step=5;fillStrokeWidth=0.2;fillStrokeColor=#dddddd;strokeWidth=2;fontSize=34;rounded=1;fillColor=#F5AB50;strokeColor=#909090;fontColor=#1A1A1A;sketch=1;" vertex="1" parent="1">
          <mxGeometry x="320" y="540" width="90" height="50" as="geometry" />
        </mxCell>
        <mxCell id="qvCsnHlTJpvGQ7y7qVDZ-7" value="0" style="text;html=1;resizable=0;autosize=1;align=center;verticalAlign=middle;points=[];fontSize=34;fontStyle=1;rounded=1;fontColor=#1A1A1A;sketch=1;" vertex="1" parent="1">
          <mxGeometry x="350" y="540" width="30" height="50" as="geometry" />
        </mxCell>
        <mxCell id="qvCsnHlTJpvGQ7y7qVDZ-9" style="edgeStyle=orthogonalEdgeStyle;curved=0;rounded=1;sketch=1;orthogonalLoop=1;jettySize=auto;html=1;entryX=0;entryY=0.5;entryDx=0;entryDy=0;entryPerimeter=0;fontColor=#1A1A1A;strokeColor=#182E3E;endSize=17;" edge="1" parent="1" source="qvCsnHlTJpvGQ7y7qVDZ-8" target="lmLc1Wd8VdwL2DXaDBoG-6">
          <mxGeometry relative="1" as="geometry" />
        </mxCell>
        <mxCell id="qvCsnHlTJpvGQ7y7qVDZ-8" value="T &lt;font style=&quot;font-size: 23px&quot;&gt;A&lt;/font&gt;" style="text;html=1;resizable=0;autosize=1;align=center;verticalAlign=middle;points=[];fontSize=34;fontStyle=1;rounded=1;fontColor=#1A1A1A;sketch=1;" vertex="1" parent="1">
          <mxGeometry x="140" y="340" width="60" height="50" as="geometry" />
        </mxCell>
        <mxCell id="qvCsnHlTJpvGQ7y7qVDZ-10" value="&lt;font style=&quot;font-size: 22px&quot;&gt;awaiting&lt;/font&gt;" style="text;html=1;resizable=0;autosize=1;align=center;verticalAlign=middle;points=[];fontSize=34;fontStyle=1;rounded=1;fontColor=#1A1A1A;sketch=1;" vertex="1" parent="1">
          <mxGeometry x="430" y="340" width="100" height="50" as="geometry" />
        </mxCell>
        <mxCell id="qvCsnHlTJpvGQ7y7qVDZ-11" style="edgeStyle=orthogonalEdgeStyle;curved=0;rounded=1;sketch=1;orthogonalLoop=1;jettySize=auto;html=1;entryX=0;entryY=0.5;entryDx=0;entryDy=0;entryPerimeter=0;fontColor=#1A1A1A;strokeColor=#182E3E;endSize=17;" edge="1" parent="1" source="qvCsnHlTJpvGQ7y7qVDZ-12">
          <mxGeometry relative="1" as="geometry">
            <mxPoint x="320" y="415" as="targetPoint" />
          </mxGeometry>
        </mxCell>
        <mxCell id="qvCsnHlTJpvGQ7y7qVDZ-12" value="T &lt;font style=&quot;font-size: 23px&quot;&gt;1&lt;/font&gt;" style="text;html=1;resizable=0;autosize=1;align=center;verticalAlign=middle;points=[];fontSize=34;fontStyle=1;rounded=1;fontColor=#1A1A1A;sketch=1;" vertex="1" parent="1">
          <mxGeometry x="140" y="390" width="60" height="50" as="geometry" />
        </mxCell>
        <mxCell id="qvCsnHlTJpvGQ7y7qVDZ-13" style="edgeStyle=orthogonalEdgeStyle;curved=0;rounded=1;sketch=1;orthogonalLoop=1;jettySize=auto;html=1;entryX=0;entryY=0.5;entryDx=0;entryDy=0;entryPerimeter=0;fontColor=#1A1A1A;strokeColor=#182E3E;endSize=17;" edge="1" parent="1" source="qvCsnHlTJpvGQ7y7qVDZ-14">
          <mxGeometry relative="1" as="geometry">
            <mxPoint x="320" y="465" as="targetPoint" />
          </mxGeometry>
        </mxCell>
        <mxCell id="qvCsnHlTJpvGQ7y7qVDZ-14" value="T &lt;font style=&quot;font-size: 23px&quot;&gt;2&lt;/font&gt;" style="text;html=1;resizable=0;autosize=1;align=center;verticalAlign=middle;points=[];fontSize=34;fontStyle=1;rounded=1;fontColor=#1A1A1A;sketch=1;" vertex="1" parent="1">
          <mxGeometry x="140" y="440" width="60" height="50" as="geometry" />
        </mxCell>
        <mxCell id="qvCsnHlTJpvGQ7y7qVDZ-15" style="edgeStyle=orthogonalEdgeStyle;curved=0;rounded=1;sketch=1;orthogonalLoop=1;jettySize=auto;html=1;entryX=0;entryY=0.5;entryDx=0;entryDy=0;entryPerimeter=0;fontColor=#1A1A1A;strokeColor=#182E3E;endSize=17;" edge="1" parent="1" source="qvCsnHlTJpvGQ7y7qVDZ-16">
          <mxGeometry relative="1" as="geometry">
            <mxPoint x="320" y="515" as="targetPoint" />
          </mxGeometry>
        </mxCell>
        <mxCell id="qvCsnHlTJpvGQ7y7qVDZ-16" value="T &lt;font style=&quot;font-size: 23px&quot;&gt;3&lt;/font&gt;" style="text;html=1;resizable=0;autosize=1;align=center;verticalAlign=middle;points=[];fontSize=34;fontStyle=1;rounded=1;fontColor=#1A1A1A;sketch=1;" vertex="1" parent="1">
          <mxGeometry x="140" y="490" width="60" height="50" as="geometry" />
        </mxCell>
        <mxCell id="qvCsnHlTJpvGQ7y7qVDZ-18" value="&lt;font style=&quot;font-size: 22px&quot;&gt;continue&lt;/font&gt;" style="text;html=1;resizable=0;autosize=1;align=center;verticalAlign=middle;points=[];fontSize=34;fontStyle=1;rounded=1;fontColor=#1A1A1A;sketch=1;" vertex="1" parent="1">
          <mxGeometry x="560" y="390" width="110" height="50" as="geometry" />
        </mxCell>
        <mxCell id="qvCsnHlTJpvGQ7y7qVDZ-19" style="edgeStyle=orthogonalEdgeStyle;curved=0;rounded=1;sketch=1;orthogonalLoop=1;jettySize=auto;html=1;exitX=1;exitY=0.5;exitDx=0;exitDy=0;exitPerimeter=0;fontColor=#1A1A1A;endSize=17;strokeColor=#182E3E;dashed=1;" edge="1" parent="1">
          <mxGeometry relative="1" as="geometry">
            <mxPoint x="560" y="465" as="targetPoint" />
            <mxPoint x="410" y="465" as="sourcePoint" />
          </mxGeometry>
        </mxCell>
        <mxCell id="qvCsnHlTJpvGQ7y7qVDZ-20" value="&lt;font style=&quot;font-size: 22px&quot;&gt;continue&lt;/font&gt;" style="text;html=1;resizable=0;autosize=1;align=center;verticalAlign=middle;points=[];fontSize=34;fontStyle=1;rounded=1;fontColor=#1A1A1A;sketch=1;" vertex="1" parent="1">
          <mxGeometry x="560" y="440" width="110" height="50" as="geometry" />
        </mxCell>
        <mxCell id="qvCsnHlTJpvGQ7y7qVDZ-21" style="edgeStyle=orthogonalEdgeStyle;curved=0;rounded=1;sketch=1;orthogonalLoop=1;jettySize=auto;html=1;exitX=1;exitY=0.5;exitDx=0;exitDy=0;exitPerimeter=0;fontColor=#1A1A1A;endSize=17;strokeColor=#182E3E;dashed=1;" edge="1" parent="1">
          <mxGeometry relative="1" as="geometry">
            <mxPoint x="560" y="515" as="targetPoint" />
            <mxPoint x="410" y="515" as="sourcePoint" />
          </mxGeometry>
        </mxCell>
        <mxCell id="qvCsnHlTJpvGQ7y7qVDZ-22" value="&lt;font style=&quot;font-size: 22px&quot;&gt;continue&lt;/font&gt;" style="text;html=1;resizable=0;autosize=1;align=center;verticalAlign=middle;points=[];fontSize=34;fontStyle=1;rounded=1;fontColor=#1A1A1A;sketch=1;" vertex="1" parent="1">
          <mxGeometry x="560" y="490" width="110" height="50" as="geometry" />
        </mxCell>
        <mxCell id="qvCsnHlTJpvGQ7y7qVDZ-23" style="edgeStyle=orthogonalEdgeStyle;curved=0;rounded=1;sketch=1;orthogonalLoop=1;jettySize=auto;html=1;exitX=1;exitY=0.5;exitDx=0;exitDy=0;exitPerimeter=0;fontColor=#1A1A1A;endSize=17;strokeColor=#182E3E;dashed=1;" edge="1" parent="1">
          <mxGeometry relative="1" as="geometry">
            <mxPoint x="560" y="565" as="targetPoint" />
            <mxPoint x="410" y="565" as="sourcePoint" />
          </mxGeometry>
        </mxCell>
        <mxCell id="qvCsnHlTJpvGQ7y7qVDZ-27" value="&lt;font size=&quot;1&quot; color=&quot;#990000&quot;&gt;&lt;b style=&quot;font-size: 23px&quot;&gt;count = 3&lt;/b&gt;&lt;/font&gt;" style="text;html=1;align=center;verticalAlign=middle;resizable=0;points=[];autosize=1;strokeColor=none;fontColor=#1A1A1A;" vertex="1" parent="1">
          <mxGeometry x="305" y="250" width="120" height="20" as="geometry" />
        </mxCell>
        <mxCell id="qvCsnHlTJpvGQ7y7qVDZ-28" value="&lt;font size=&quot;1&quot; color=&quot;#990000&quot;&gt;&lt;b style=&quot;font-size: 23px&quot;&gt;count = 0&lt;/b&gt;&lt;/font&gt;" style="text;html=1;align=center;verticalAlign=middle;resizable=0;points=[];autosize=1;strokeColor=none;fontColor=#1A1A1A;" vertex="1" parent="1">
          <mxGeometry x="305" y="640" width="120" height="20" as="geometry" />
        </mxCell>
        <mxCell id="qvCsnHlTJpvGQ7y7qVDZ-31" value="" style="edgeStyle=orthogonalEdgeStyle;curved=0;rounded=1;sketch=1;orthogonalLoop=1;jettySize=auto;html=1;dashed=1;fontColor=#1A1A1A;endSize=17;strokeColor=#182E3E;" edge="1" parent="1" source="qvCsnHlTJpvGQ7y7qVDZ-29" target="qvCsnHlTJpvGQ7y7qVDZ-30">
          <mxGeometry relative="1" as="geometry" />
        </mxCell>
        <mxCell id="qvCsnHlTJpvGQ7y7qVDZ-29" value="&lt;font style=&quot;font-size: 22px&quot;&gt;resumed&lt;/font&gt;" style="text;html=1;resizable=0;autosize=1;align=center;verticalAlign=middle;points=[];fontSize=34;fontStyle=1;rounded=1;fontColor=#1A1A1A;sketch=1;" vertex="1" parent="1">
          <mxGeometry x="560" y="540" width="110" height="50" as="geometry" />
        </mxCell>
        <mxCell id="qvCsnHlTJpvGQ7y7qVDZ-30" value="&lt;font&gt;&lt;b&gt;&lt;span style=&quot;font-size: 29px&quot;&gt;T &lt;/span&gt;&lt;font style=&quot;font-size: 19px&quot;&gt;B&lt;/font&gt;&lt;/b&gt;&lt;/font&gt;" style="whiteSpace=wrap;html=1;rounded=1;sketch=1;fontColor=#1A1A1A;strokeColor=#909090;fillColor=#F5AB50;" vertex="1" parent="1">
          <mxGeometry x="555" y="640" width="120" height="60" as="geometry" />
        </mxCell>
      </root>
    </mxGraphModel>
  </diagram>
</mxfile>
